#!OML:ASF G:\acrobat\cartwheel_test\acrobat_wednesday\Session 1\acrobatwednesday.ASF
:FULLY-SPECIFIED
:DEGREES
240
root 2.81097 15.1241 1.44835 -78.2958 -37.6528 -129.132
lowerback 22.738 1.62338 -12.9332
upperback -0.159697 -2.20815 -10.4553
thorax -13.0833 -0.524313 -3.99107
lowerneck -31.0349 2.32721 -6.81264
upperneck 2.27789 3.95999 10.1916
head 5.07248 2.52375 4.9322
rclavicle 9.46215e-014 4.77083e-014
rhumerus 71.2493 -53.5444 -32.0913
rradius 34.7722
rwrist 16.4575
rhand -51.2784 2.0996
rfingers 7.12502
rthumb -23.8156 333.556
lclavicle 9.46215e-014 4.77083e-014
lhumerus 71.128 35.3272 40.5781
lradius 39.6889
lwrist 21.1425
lhand -58.8399 97.5613
lfingers 7.12502
lthumb -31.0467 -70.1688
rfemur 8.35647 -353.875 12.146
rtibia 45.8649
rfoot -25.8706 6.35708
rtoes 1.65975
lfemur -31.4025 0.18424 64.6953
ltibia -2.35121
lfoot 106.218 177.714
ltoes 65.4473
241
root 2.8936 15.0858 1.88647 -79.7537 -33.6166 -129.364
lowerback 23.2591 1.30961 -13.7719
upperback 0.175245 -2.83822 -11.1081
thorax -12.9631 -0.752734 -4.09559
lowerneck -30.8339 2.28826 -7.01397
upperneck 2.85519 3.9294 10.3198
head 5.23127 2.52271 5.0124
rclavicle -2.5524e-013 -7.79236e-014
rhumerus 67.8239 -54.5634 -29.295
rradius 33.9561
rwrist 14.9709
rhand -51.5817 -1.08204
rfingers 7.12502
rthumb -24.1065 330.412
lclavicle -2.5524e-013 -7.79236e-014
lhumerus 70.7452 35.8029 40.9672
lradius 38.5378
lwrist 21.3596
lhand -58.8087 96.4861
lfingers 7.12502
lthumb -31.017 -69.0879
rfemur 7.137 -353.478 14.8139
rtibia 41.6123
rfoot -24.3944 7.59594
rtoes -1.8062
lfemur -31.951 3.92539 64.4422
ltibia 0.0879625
lfoot 113.577 182.08
ltoes 65.5108
242
root 2.98918 15.0161 2.34145 -81.1695 -29.6787 -129.961
lowerback 23.8091 0.953807 -14.5946
upperback 0.082907 -3.55807 -11.622
thorax -12.6752 -0.924258 -3.5887
lowerneck -30.8804 1.68853 -6.91975
upperneck 3.59376 4.07996 10.3283
head 5.47924 3.0019 5.07914
rclavicle 2.22639e-014 9.22361e-014
rhumerus 63.3616 -54.9154 -25.799
rradius 33.4698
rwrist 12.5972
rhand -50.282 -2.20289
rfingers 7.12502
rthumb -22.8597 329.132
lclavicle 2.22639e-014 9.22361e-014
lhumerus 69.2308 36.299 40.9847
lradius 37.6041
lwrist 21.8613
lhand -58.7924 95.1895
lfingers 7.12502
lthumb -31.0015 -67.7883
rfemur 6.2289 -353.229 17.3331
rtibia 36.4078
rfoot -24.058 8.49957
rtoes -1.45152
lfemur -32.6738 8.14366 63.2886
ltibia 2.70997
lfoot 120.994 185.857
ltoes 65.1564
243
root 3.09104 14.9151 2.81865 -82.5379 -25.8154 -131.082
lowerback 24.4424 0.606728 -15.1661
upperback 0.184151 -4.1949 -11.6277
thorax -12.7904 -1.12474 -3.10609
lowerneck -30.9223 1.59786 -7.24097
upperneck 4.12218 4.03356 10.4128
head 5.65407 2.9752 5.16922
rclavicle 6.99722e-014 1.43125e-013
rhumerus 57.1281 -54.7902 -20.7621
rradius 33.3627
rwrist 10.0269
rhand -48.7159 -1.64153
rfingers 7.12502
rthumb -21.3561 329.515
lclavicle 6.99722e-014 1.43125e-013
lhumerus 66.5651 36.4492 40.5813
lradius 36.9448
lwrist 22.9076
lhand -58.8274 94.1898
lfingers 7.12502
lthumb -31.0349 -66.795
rfemur 5.51248 -353.442 19.5571
rtibia 30.064
rfoot -25.119 11.6864
rtoes -1.278
lfemur -34.3674 13.964 60.4479
ltibia 6.64294
lfoot 130.132 189.801
ltoes 64.4042
244
root 3.19666 14.7825 3.32119 -83.9675 -21.8351 -132.519
lowerback 24.928 0.361474 -15.6018
upperback 0.240918 -4.64177 -11.4542
thorax -12.8713 -1.24697 -2.55658
lowerneck -30.6704 1.52231 -7.42419
upperneck 4.61025 3.948 10.4124
head 5.78395 2.91728 5.19339
rclavicle -2.38542e-014 8.5875e-014
rhumerus 49.7061 -54.3013 -14.768
rradius 33.5226
rwrist 8.53724
rhand -47.5087 -1.31001
rfingers 7.12502
rthumb -20.1963 329.72
lclavicle -2.38542e-014 8.5875e-014
lhumerus 63.4282 36.1198 40.4044
lradius 36.2493
lwrist 24.1907
lhand -58.8479 92.7802
lfingers 7.12502
lthumb -31.0544 -65.3892
rfemur 4.73293 -354.343 21.0398
rtibia 23.2896
rfoot -25.5114 13.012
rtoes 0.182955
lfemur -38.1711 21.4781 54.9161
ltibia 13.6036
lfoot 138.789 185.077
ltoes 58.2183
245
root 3.29693 14.6353 3.8394 -85.4253 -17.6198 -134.164
lowerback 25.3205 0.245865 -16.1772
upperback 0.304322 -4.93624 -11.096
thorax -12.8581 -1.29686 -1.78713
lowerneck -30.6678 1.3772 -7.65889
upperneck 5.44199 3.76831 10.4893
head 6.06831 2.82121 5.25962
rclavicle 1.46306e-013 5.40694e-014
rhumerus 43.203 -54.0616 -9.92791
rradius 33.7603
rwrist 8.31564
rhand -46.9227 -1.13672
rfingers 7.12502
rthumb -19.633 329.835
lclavicle 1.46306e-013 5.40694e-014
lhumerus 60.2581 35.6265 40.6701
lradius 35.3075
lwrist 25.7453
lhand -58.8506 91.3741
lfingers 7.12502
lthumb -31.057 -63.9835
rfemur 3.51704 -356.476 21.6508
rtibia 16.8128
rfoot -25.1011 13.9308
rtoes 1.55639
lfemur -43.6667 26.9978 47.7658
ltibia 21.5829
lfoot 150.611 177.434
ltoes 63.6524
246
root 3.38541 14.4968 4.3537 -87.013 -13.456 -135.783
lowerback 25.8013 0.343687 -16.8474
upperback 0.351604 -5.01785 -10.5269
thorax -12.8793 -1.24864 -0.813661
lowerneck -30.9041 1.10688 -8.0341
upperneck 6.60175 3.43453 10.8016
head 6.50815 2.67304 5.42991
rclavicle 8.90555e-014 -1.27222e-014
rhumerus 36.9276 -54.1106 -5.42092
rradius 34.1627
rwrist 7.88135
rhand -46.7279 -2.34418
rfingers 7.12502
rthumb -19.4457 328.608
lclavicle 8.90555e-014 -1.27222e-014
lhumerus 56.9528 35.0351 40.9674
lradius 34.0664
lwrist 27.9583
lhand -58.9239 90.5747
lfingers 7.12502
lthumb -31.1268 -63.1975
rfemur 1.24198 -359.06 21.8951
rtibia 11.5717
rfoot -22.6267 12.3774
rtoes 4.67969
lfemur -48.878 28.8706 40.9497
ltibia 27.7655
lfoot 156.748 168.42
ltoes 65.1032
247
root 3.46595 14.4021 4.85454 -88.4879 -9.45846 -137.352
lowerback 26.239 0.620404 -17.6417
upperback 0.346742 -4.92112 -9.84466
thorax -12.9311 -1.1183 0.278835
lowerneck -30.8504 0.730807 -8.36343
upperneck 7.51189 2.92161 11.2144
head 6.85009 2.44975 5.5905
rclavicle -8.5875e-014 -3.18055e-014
rhumerus 30.1108 -54.2143 -0.589173
rradius 34.7526
rwrist 6.48833
rhand -46.5832 -5.22451
rfingers 7.12502
rthumb -19.3065 325.714
lclavicle -8.5875e-014 -3.18055e-014
lhumerus 53.6802 34.1933 40.8476
lradius 32.353
lwrist 30.8384
lhand -59.3357 -88.3758
lfingers 7.12502
lthumb -31.5192 -61.0746
rfemur -2.13031 -357.652 22.8854
rtibia 7.85048
rfoot -20.6827 9.19051
rtoes 5.0519
lfemur -53.6515 28.5582 34.6612
ltibia 32.7148
lfoot 160.964 160.27
ltoes 62.9278
248
root 3.53725 14.3718 5.34025 -89.8416 -5.6465 -139.348
lowerback 26.742 1.71085 -17.917
upperback 0.279205 -3.74745 -10.101
thorax -13.377 -0.548005 -0.281042
lowerneck -27.9657 0.0744581 -5.92705
upperneck 7.02053 1.05998 10.824
head 6.48964 1.54281 4.73378
rclavicle 0 5.08889e-014
rhumerus 15.6259 -52.265 10.1942
rradius 36.1155
rwrist 3.24809
rhand -46.1982 -9.16112
rfingers 7.12502
rthumb -18.9364 321.741
lclavicle 0 5.08889e-014
lhumerus 54.4465 30.2885 42.3585
lradius 29.2881
lwrist 33.4011
lhand -60.1184 -82.5561
lfingers 7.12502
lthumb -32.2646 -55.4036
rfemur -7.06133 -358.025 23.3854
rtibia 6.62564
rfoot -16.8431 7.7165
rtoes 4.39977
lfemur -59.4791 27.3995 27.3189
ltibia 37.6711
lfoot 165.929 153.392
ltoes 61.706
